<svg width="258" height="258" viewBox="0 0 258 258" fill="none" xmlns="http://www.w3.org/2000/svg">
<path opacity="0.3" d="M256.309 150.542L191.183 146.376L249.052 176.567L186.213 158.935L236.55 200.516L178.746 170.19L219.347 221.34L169.103 179.645L198.195 238.126L157.711 186.886L174.018 250.145L145.063 191.596L147.875 256.869L131.714 193.569L120.909 258L118.243 192.725L94.2936 253.498L105.245 189.094L69.1936 243.555L93.2803 182.837L46.7102 228.604L82.8811 174.225L27.8246 209.298L74.4969 163.639L13.3604 186.489L68.4957 151.539L3.94826 161.163L65.1373 138.45L0 134.43L64.5708 124.95L1.6908 107.461L66.8165 111.63L8.94778 81.4364L71.7868 99.0709L21.4496 57.4873L79.2541 87.8155L38.6531 36.6633L88.8969 78.358L59.8019 19.8767L100.286 71.1166L83.9791 7.86121L112.937 66.4039L110.122 1.1372L126.291 64.4335L137.091 0L139.757 65.2783L163.706 4.50506L152.755 68.9094L188.806 14.4478L164.72 75.1715L211.287 29.4015L175.119 83.7782L230.175 48.7023L183.503 94.3641L244.643 71.5171L189.504 106.467L254.055 96.8432L192.863 119.553L258 123.573L193.429 133.051L256.309 150.542Z" fill="#354072"/>
</svg>
