<svg width="18" height="22" viewBox="0 0 18 22" fill="none" xmlns="http://www.w3.org/2000/svg">
<path d="M1 21V14" stroke="#ECF3FF" stroke-width="2" stroke-linecap="round" stroke-linejoin="round"/>
<path d="M1 14C1 14 2 13 5 13C8 13 10 15 13 15C16 15 17 14 17 14V2C17 2 16 3 13 3C10 3 8 1 5 1C2 1 1 2 1 2V14Z" stroke="#ECF3FF" stroke-width="2" stroke-linecap="round" stroke-linejoin="round"/>
<path d="M14.3623 6.91138C15.3993 6.73194 16.388 6.38101 17.3634 5.99037V2.00781C16.2501 2.51595 15.2688 2.87483 14.3623 3.09873V6.91138Z" fill="#ECF3FF"/>
<path d="M10.8231 3.28058C10.0237 3.14084 9.27707 2.89153 8.54514 2.64699C8.12123 2.50566 7.70613 2.36592 7.28369 2.25V5.70536C8.4542 6.04042 9.56897 6.51204 10.8231 6.79469V3.28058Z" fill="#ECF3FF"/>
<path d="M7.28378 5.70626C5.88298 5.30292 4.88996 5.25846 3.74439 5.42996V2C2.53428 2.15403 1.61459 2.50497 1 2.81461V6.22393C1.64686 5.93492 2.458 5.6745 3.28528 5.51094L3.74439 5.42996V9.10763C2.81883 9.20608 1.91088 9.39346 1 9.665V13.3458C1.91968 12.9536 2.81883 12.7123 3.74439 12.6043V9.10763C5.24346 8.94884 6.27169 9.03935 7.28378 9.27278V12.7742C8.00691 12.9235 8.69044 13.141 9.35637 13.3538C9.84775 13.511 10.3289 13.6634 10.8232 13.7905V10.3637C9.65853 10.0334 8.53789 9.55543 7.28378 9.27278V5.70626Z" fill="#ECF3FF"/>
<path d="M14.3626 6.91584C13.1921 7.11751 12.0774 7.09211 10.8232 6.80469V10.3649C12.0495 10.7142 12.9633 10.7888 13.9387 10.6936L14.3612 10.6412V14.0012C15.3894 13.8186 16.381 13.3899 17.3637 12.7071V9.72015C16.5716 10.1124 15.4598 10.4712 14.3626 10.6364V6.91584Z" fill="#ECF3FF"/>
</svg>
