<svg width="24" height="23" viewBox="0 0 24 23" fill="none" xmlns="http://www.w3.org/2000/svg">
<circle cx="11.5" cy="11.5" r="11" stroke="#6778B1" strokeOpacity="0.24"/>
<path d="M22 12C22 5.66073 17.3393 1 11 1" stroke="url(#paint0_linear_2002_10)" strokeWidth="2"/>
<circle cx="22" cy="12" r="2" fill="#FF7424"/>
<path fill-rule="evenodd" clip-rule="evenodd" d="M8.79132 13.5719C9.51083 14.2909 10.4671 14.6869 11.4841 14.6869C12.5011 14.6869 13.4572 14.2909 14.1766 13.5719C15.6614 12.087 15.6614 9.67117 14.1772 8.18608C13.4578 7.46685 12.5011 7.0708 11.4841 7.0708C10.4667 7.0708 9.51026 7.46685 8.79103 8.18608C7.30637 9.67117 7.3068 12.087 8.79132 13.5719ZM11.9618 12.131C11.7382 11.8072 11.6264 11.3683 11.6264 10.8143C11.6264 10.2636 11.7382 9.82801 11.9618 9.5076C12.1855 9.18385 12.5426 9.02197 13.0332 9.02197C13.5205 9.02197 13.876 9.18385 14.0996 9.5076C14.3266 9.82801 14.4401 10.2636 14.4401 10.8143C14.4401 11.3683 14.3266 11.8072 14.0996 12.131C13.876 12.4547 13.5205 12.6166 13.0332 12.6166C12.5426 12.6166 12.1855 12.4547 11.9618 12.131ZM13.4738 11.5502C13.5506 11.3767 13.589 11.1314 13.589 10.8143C13.589 10.4972 13.5506 10.2552 13.4738 10.0884C13.4004 9.91813 13.2535 9.83302 13.0332 9.83302C12.8096 9.83302 12.6594 9.91813 12.5827 10.0884C12.5059 10.2586 12.4675 10.5005 12.4675 10.8143C12.4675 11.1314 12.5059 11.3767 12.5827 11.5502C12.6594 11.7205 12.8096 11.8056 13.0332 11.8056C13.2535 11.8056 13.4004 11.7205 13.4738 11.5502ZM10.3923 10.1319C10.3923 10.5792 9.86161 11.1816 8.80024 11.9393V12.5801H11.3235V11.8892H9.9267C10.2938 11.6623 10.6092 11.3852 10.8729 11.0581C11.1366 10.7277 11.2684 10.3906 11.2684 10.0468C11.2684 9.73644 11.17 9.48445 10.9731 9.29086C10.7795 9.09728 10.4908 9.00049 10.1069 9.00049C9.73979 9.00049 9.43607 9.10896 9.19576 9.32591C8.95544 9.54286 8.82528 9.86661 8.80525 10.2972H9.64133C9.64801 10.1002 9.68138 9.95505 9.74146 9.8616C9.80488 9.76815 9.90334 9.72142 10.0368 9.72142C10.2738 9.72142 10.3923 9.85826 10.3923 10.1319Z" fill="#8F9BBE"/>
<path d="M5.29698 15.1228L7.11893 15.2437L7.24016 17.066C7.24629 17.1604 7.30776 17.2425 7.39619 17.2761C7.42385 17.2866 7.4528 17.2913 7.48104 17.2913C7.54408 17.2913 7.60612 17.2668 7.65204 17.2204L9.88274 14.99C9.80202 14.9585 9.72258 14.9237 9.64385 14.8871C9.56598 14.8517 9.48754 14.8179 9.4121 14.7774C9.03088 14.5744 8.67747 14.3137 8.36342 13.9997C8.04581 13.6818 7.78767 13.327 7.58729 12.949C7.54693 12.8731 7.51299 12.7947 7.47748 12.7168C7.44125 12.6381 7.4056 12.5594 7.37422 12.4785L5.1421 14.7108C5.07521 14.7778 5.05339 14.8778 5.08662 14.9665C5.12028 15.0552 5.20228 15.1164 5.29698 15.1228Z" fill="#8F9BBE"/>
<path d="M15.5729 12.5332C15.541 12.6125 15.5022 12.6898 15.4652 12.7674C15.429 12.8441 15.3923 12.9204 15.3517 12.9954C15.155 13.3557 14.907 13.6955 14.6024 14.0002C14.2749 14.3275 13.9041 14.5948 13.5041 14.8014C13.4283 14.8406 13.3505 14.8763 13.2726 14.9112C13.1923 14.9466 13.1113 14.9791 13.0293 15.0096L15.3476 17.3276C15.3936 17.3738 15.4552 17.3984 15.5183 17.3984C15.5469 17.3984 15.5755 17.3934 15.6033 17.3831C15.6921 17.3496 15.7532 17.2674 15.7593 17.1727L15.8807 15.3509L17.7025 15.2297C17.7972 15.2234 17.879 15.1624 17.9128 15.0735C17.9461 14.9848 17.9243 14.8848 17.8574 14.818L15.5729 12.5332Z" fill="#8F9BBE"/>
<path d="M17.8894 12.1252L17.3591 12.4171C17.2966 12.4515 17.2236 12.3959 17.2355 12.323L17.3367 11.7048C17.3415 11.6759 17.3323 11.6464 17.3122 11.6259L16.8833 11.1881C16.8327 11.1364 16.8606 11.0465 16.9305 11.0358L17.5232 10.9456C17.551 10.9414 17.575 10.9232 17.5874 10.8968L17.8525 10.3344C17.8837 10.2681 17.9741 10.2681 18.0052 10.3344L18.2703 10.8968C18.2828 10.9232 18.3067 10.9414 18.3345 10.9456L18.9272 11.0358C18.9971 11.0465 19.0251 11.1364 18.9745 11.1881L18.5455 11.6259C18.5254 11.6464 18.5163 11.6759 18.521 11.7048L18.6222 12.323C18.6341 12.3959 18.5611 12.4515 18.4986 12.4171L17.9684 12.1252C17.9436 12.1116 17.9139 12.1116 17.889 12.1252H17.8894Z" fill="#8F9BBE"/>
<path d="M5.03194 12.1252L4.50171 12.4171C4.43917 12.4515 4.36615 12.3959 4.37808 12.323L4.4793 11.7048C4.48408 11.6759 4.47487 11.6464 4.45477 11.6259L4.02584 11.1881C3.97523 11.1364 4.00318 11.0465 4.07305 11.0358L4.66582 10.9456C4.69359 10.9414 4.71754 10.9232 4.72998 10.8968L4.99505 10.3344C5.02632 10.2681 5.11664 10.2681 5.14782 10.3344L5.4129 10.8968C5.42534 10.9232 5.44928 10.9414 5.47706 10.9456L6.06983 11.0358C6.13969 11.0465 6.16764 11.1364 6.11703 11.1881L5.68811 11.6259C5.668 11.6464 5.65888 11.6759 5.66357 11.7048L5.76479 12.323C5.77672 12.3959 5.7037 12.4515 5.64116 12.4171L5.11093 12.1252C5.08613 12.1116 5.05648 12.1116 5.0316 12.1252H5.03194Z" fill="#8F9BBE"/>
<path d="M7.17452 7.84057L6.64429 8.13241C6.58175 8.16685 6.50873 8.11127 6.52066 8.03837L6.62188 7.42016C6.62665 7.39125 6.61745 7.36172 6.59734 7.3412L6.16842 6.90339C6.11781 6.85173 6.14576 6.76179 6.21562 6.75118L6.8084 6.66097C6.83617 6.65678 6.86012 6.63849 6.87256 6.61217L7.13763 6.04972C7.1689 5.98343 7.25922 5.98343 7.2904 6.04972L7.55547 6.61217C7.56791 6.63849 7.59186 6.65678 7.61963 6.66097L8.2124 6.75118C8.28227 6.76179 8.31022 6.85173 8.25961 6.90339L7.83069 7.3412C7.81058 7.36172 7.80146 7.39125 7.80615 7.42016L7.90737 8.03837C7.9193 8.11127 7.84628 8.16685 7.78374 8.13241L7.25351 7.84057C7.22871 7.82692 7.19906 7.82692 7.17418 7.84057H7.17452Z" fill="#8F9BBE"/>
<path d="M15.7468 7.84057L15.2166 8.13241C15.154 8.16685 15.081 8.11127 15.0929 8.03837L15.1941 7.42016C15.1989 7.39125 15.1897 7.36172 15.1696 7.3412L14.7407 6.90339C14.6901 6.85173 14.718 6.76179 14.7879 6.75118L15.3807 6.66097C15.4084 6.65678 15.4324 6.63849 15.4448 6.61217L15.7099 6.04972C15.7412 5.98343 15.8315 5.98343 15.8627 6.04972L16.1277 6.61217C16.1402 6.63849 16.1641 6.65678 16.1919 6.66097L16.7847 6.75118C16.8545 6.76179 16.8825 6.85173 16.8319 6.90339L16.403 7.3412C16.3828 7.36172 16.3737 7.39125 16.3784 7.42016L16.4796 8.03837C16.4916 8.11127 16.4185 8.16685 16.356 8.13241L15.8258 7.84057C15.801 7.82692 15.7713 7.82692 15.7464 7.84057H15.7468Z" fill="#8F9BBE"/>
<defs>
<linearGradient id="paint0_linear_2002_10" x1="16.5" y1="1" x2="16.5" y2="12" gradientUnits="userSpaceOnUse">
<stop stop-color="#FF7424"/>
<stop offset="1" stop-color="#FF9736"/>
</linearGradient>
</defs>
</svg>
