<svg width="24" height="23" viewBox="0 0 24 23" fill="none" xmlns="http://www.w3.org/2000/svg">
<path d="M22 12C22 5.66073 17.3393 1 11 1" stroke="url(#paint0_radial_2002_6)" strokeWidth="2" strokeLinecap="round"/>
<circle cx="11.5" cy="11.5" r="11" stroke="#6778B1" strokeOpacity="0.24"/>
<circle cx="22" cy="12" r="2" fill="#A33EB1"/>
<path d="M16.1156 7.81576H14.3314V6.94735H14.4262C14.6946 6.94735 14.8998 6.74209 14.8998 6.47368C14.8998 6.20526 14.6946 6 14.4262 6H7.16312C6.89471 6 6.68945 6.20526 6.68945 6.47368C6.68945 6.74209 6.89471 6.94735 7.16312 6.94735H7.25786V7.81576H5.47368C5.20526 7.81576 5 8.02102 5 8.28944V8.7789C5 10.3736 6.07367 11.7631 7.60522 12.1894L8.47363 12.4262C8.50521 12.4736 8.55257 12.5209 8.58415 12.5525C8.99467 12.963 9.48414 13.2315 10.0368 13.3578V14.3051C10.0368 14.6525 9.75255 14.9367 9.40519 14.9367C9.27888 14.9367 9.16835 15.0472 9.16835 15.1735V15.5367C9.16835 15.663 9.05783 15.7735 8.93151 15.7735H8.61573C8.48942 15.7735 8.37889 15.884 8.37889 16.0104V17.3367C8.37889 17.463 8.48942 17.5735 8.61573 17.5735H12.9578C13.0841 17.5735 13.1946 17.463 13.1946 17.3367V15.9946C13.1946 15.8683 13.0841 15.7577 12.9578 15.7577H12.642C12.5157 15.7577 12.4051 15.6472 12.4051 15.5209V15.1577C12.4051 15.0314 12.2946 14.9209 12.1683 14.9209C11.8209 14.9209 11.5367 14.6367 11.5367 14.2893V13.342C12.0894 13.2157 12.5788 12.9473 12.9893 12.5367C13.0367 12.4894 13.0683 12.4578 13.0999 12.4104L13.9683 12.1736C15.4998 11.7631 16.5735 10.3578 16.5735 8.76311V8.27365C16.5893 8.03681 16.3682 7.81576 16.1156 7.81576ZM5.94735 8.7789V8.76311H7.25786C7.28944 9.31573 7.38417 10.3105 7.76311 11.242C6.70524 10.9104 5.94735 9.91572 5.94735 8.7789ZM11.6473 16.184V16.6893C11.6473 16.7682 11.5841 16.8156 11.5209 16.8156H10.0841C10.0052 16.8156 9.95781 16.7525 9.95781 16.6893V16.184C9.95781 16.1051 10.021 16.0419 10.0841 16.0419H11.5209C11.5841 16.0419 11.6473 16.1051 11.6473 16.184ZM12.4999 9.44205L11.9473 9.96309C11.8999 10.0105 11.8683 10.0894 11.8841 10.1526L12.0262 10.8947C12.0736 11.1631 11.7894 11.3525 11.5525 11.2262L10.8894 10.8631C10.8262 10.8315 10.7473 10.8315 10.6841 10.8631L10.021 11.2262C9.78413 11.3525 9.49993 11.1473 9.54729 10.8947L9.6894 10.1526C9.70519 10.0894 9.67361 10.0105 9.62624 9.96309L9.08941 9.44205C8.89994 9.25258 8.99467 8.93679 9.26309 8.88943L10.0052 8.79469C10.0683 8.7789 10.1315 8.74732 10.1631 8.66838L10.4946 7.98944C10.6052 7.7526 10.9525 7.7526 11.0631 7.98944L11.3946 8.66838C11.4262 8.73153 11.4894 8.7789 11.5525 8.79469L12.2946 8.88943C12.5788 8.93679 12.6893 9.26837 12.4999 9.44205ZM15.6419 8.7789C15.6419 9.91572 14.8998 10.8947 13.8262 11.242C14.2051 10.3105 14.2998 9.31573 14.3314 8.76311H15.6419V8.7789Z" fill="#8F9BBE"/>
<defs>
<radialGradient id="paint0_radial_2002_6" cx="0" cy="0" r="1" gradientUnits="userSpaceOnUse" gradientTransform="translate(9.5 1) rotate(30.9638) scale(14.5774 14.4528)">
<stop stop-color="#AF3BB9"/>
<stop offset="1" stop-color="#EC76FF"/>
</radialGradient>
</defs>
</svg>
