<svg width="24" height="23" viewBox="0 0 24 23" fill="none" xmlns="http://www.w3.org/2000/svg">
<circle cx="22" cy="12" r="2" fill="#4F80FF"/>
<circle cx="11.5" cy="11.5" r="11" stroke="#6778B1" strokeOpacity="0.24"/>
<path d="M22 12C22 5.66073 17.3393 1 11 1" stroke="url(#paint0_radial_2002_4)" strokeWidth="2" strokeLinecap="round"/>
<path d="M7.49998 11.5005C7.50287 9.58636 8.59805 7.84182 10.3207 7.00732C7.90756 7.1018 6 9.08551 6 11.5005C6 13.9154 7.90756 15.8991 10.3207 15.9936C8.59805 15.1591 7.50287 13.4146 7.49998 11.5005Z" fill="#8F9BBE"/>
<path d="M12.5 7C10.0147 7 8 9.01472 8 11.5C8 13.9853 10.0147 16 12.5 16C14.9853 16 17 13.9853 17 11.5C16.9971 9.01591 14.9841 7.00288 12.5 7ZM11.3997 8.97925C12.1013 8.6753 12.8973 8.67503 13.5991 8.9785C13.7257 9.03365 13.7837 9.18099 13.7285 9.3076C13.6734 9.43421 13.526 9.49215 13.3994 9.437C12.8252 9.18879 12.174 9.18888 11.5999 9.43724C11.5684 9.45117 11.5344 9.45832 11.5 9.45825C11.3816 9.45833 11.2794 9.37538 11.2552 9.25953C11.2309 9.14368 11.2912 9.02668 11.3997 8.97925ZM10.437 12.3994C10.4921 12.526 10.4342 12.6734 10.3076 12.7285C10.181 12.7837 10.0336 12.7257 9.9785 12.5991C9.67365 11.8977 9.67383 11.1012 9.979 10.3999C10.0348 10.2742 10.1816 10.2172 10.3075 10.2723C10.4335 10.3274 10.4913 10.4738 10.437 10.6001C10.1877 11.174 10.1877 11.8256 10.437 12.3994ZM13.5999 14.021C12.898 14.3265 12.1007 14.3263 11.3989 14.0205C11.3166 13.9851 11.2596 13.9083 11.2494 13.8192C11.2393 13.7302 11.2776 13.6425 11.3498 13.5895C11.4221 13.5364 11.5172 13.5261 11.5991 13.5625C12.1734 13.8114 12.8252 13.8116 13.3997 13.563C13.5259 13.5087 13.6724 13.5665 13.7275 13.6925C13.7825 13.8184 13.7255 13.9652 13.5999 14.021ZM15.021 12.5999C14.9812 12.691 14.8912 12.7499 14.7917 12.7498C14.7574 12.7498 14.7233 12.7427 14.6919 12.7288C14.6311 12.7022 14.5834 12.6527 14.5592 12.5909C14.5351 12.5292 14.5364 12.4604 14.563 12.3997C14.8125 11.8254 14.8123 11.1733 14.5625 10.5991C14.5261 10.5172 14.5364 10.4221 14.5895 10.3498C14.6425 10.2776 14.7302 10.2393 14.8192 10.2494C14.9083 10.2596 14.9851 10.3166 15.0205 10.3989C15.3263 11.1007 15.3265 11.898 15.021 12.5999Z" fill="#8F9BBE"/>
<defs>
<radialGradient id="paint0_radial_2002_4" cx="0" cy="0" r="1" gradientUnits="userSpaceOnUse" gradientTransform="translate(10.0435 10.0106) rotate(-45.0872) scale(13.2885 13.1749)">
<stop stop-color="#326AFF"/>
<stop offset="1" stop-color="#769BFF"/>
</radialGradient>
</defs>
</svg>
