<svg width="23" height="23" viewBox="0 0 23 23" fill="none" xmlns="http://www.w3.org/2000/svg">
<circle cx="11.5" cy="11.5" r="11" stroke="#6778B1" strokeOpacity="0.24"/>
<path d="M11.4907 1C17.4183 1 22 5.57763 22 11.5C22 17.4224 17.4183 22 11.4907 22C8.52017 22 5.94331 20.8206 4 18.8723" stroke="url(#paint0_radial_2002_8)" strokeWidth="2" strokeLinecap="round"/>
<circle cx="3" cy="18" r="2" fill="#A33EB1"/>
<path d="M17.1156 7.81576H15.3314V6.94735H15.4262C15.6946 6.94735 15.8998 6.74209 15.8998 6.47368C15.8998 6.20526 15.6946 6 15.4262 6H8.16312C7.89471 6 7.68945 6.20526 7.68945 6.47368C7.68945 6.74209 7.89471 6.94735 8.16312 6.94735H8.25786V7.81576H6.47368C6.20526 7.81576 6 8.02102 6 8.28944V8.7789C6 10.3736 7.07367 11.7631 8.60522 12.1894L9.47363 12.4262C9.50521 12.4736 9.55257 12.5209 9.58415 12.5525C9.99467 12.963 10.4841 13.2315 11.0368 13.3578V14.3051C11.0368 14.6525 10.7526 14.9367 10.4052 14.9367C10.2789 14.9367 10.1684 15.0472 10.1684 15.1735V15.5367C10.1684 15.663 10.0578 15.7735 9.93151 15.7735H9.61573C9.48942 15.7735 9.37889 15.884 9.37889 16.0104V17.3367C9.37889 17.463 9.48942 17.5735 9.61573 17.5735H13.9578C14.0841 17.5735 14.1946 17.463 14.1946 17.3367V15.9946C14.1946 15.8683 14.0841 15.7577 13.9578 15.7577H13.642C13.5157 15.7577 13.4051 15.6472 13.4051 15.5209V15.1577C13.4051 15.0314 13.2946 14.9209 13.1683 14.9209C12.8209 14.9209 12.5367 14.6367 12.5367 14.2893V13.342C13.0894 13.2157 13.5788 12.9473 13.9893 12.5367C14.0367 12.4894 14.0683 12.4578 14.0999 12.4104L14.9683 12.1736C16.4998 11.7631 17.5735 10.3578 17.5735 8.76311V8.27365C17.5893 8.03681 17.3682 7.81576 17.1156 7.81576ZM6.94735 8.7789V8.76311H8.25786C8.28944 9.31573 8.38417 10.3105 8.76311 11.242C7.70524 10.9104 6.94735 9.91572 6.94735 8.7789ZM12.6473 16.184V16.6893C12.6473 16.7682 12.5841 16.8156 12.5209 16.8156H11.0841C11.0052 16.8156 10.9578 16.7525 10.9578 16.6893V16.184C10.9578 16.1051 11.021 16.0419 11.0841 16.0419H12.5209C12.5841 16.0419 12.6473 16.1051 12.6473 16.184ZM13.4999 9.44205L12.9473 9.96309C12.8999 10.0105 12.8683 10.0894 12.8841 10.1526L13.0262 10.8947C13.0736 11.1631 12.7894 11.3525 12.5525 11.2262L11.8894 10.8631C11.8262 10.8315 11.7473 10.8315 11.6841 10.8631L11.021 11.2262C10.7841 11.3525 10.4999 11.1473 10.5473 10.8947L10.6894 10.1526C10.7052 10.0894 10.6736 10.0105 10.6262 9.96309L10.0894 9.44205C9.89994 9.25258 9.99467 8.93679 10.2631 8.88943L11.0052 8.79469C11.0683 8.7789 11.1315 8.74732 11.1631 8.66838L11.4946 7.98944C11.6052 7.7526 11.9525 7.7526 12.0631 7.98944L12.3946 8.66838C12.4262 8.73153 12.4894 8.7789 12.5525 8.79469L13.2946 8.88943C13.5788 8.93679 13.6893 9.26837 13.4999 9.44205ZM16.6419 8.7789C16.6419 9.91572 15.8998 10.8947 14.8262 11.242C15.2051 10.3105 15.2998 9.31573 15.3314 8.76311H16.6419V8.7789Z" fill="#8F9BBE"/>
<defs>
<radialGradient id="paint0_radial_2002_8" cx="0" cy="0" r="1" gradientUnits="userSpaceOnUse" gradientTransform="translate(1.54545 1) rotate(34.992) scale(24.968 26.3606)">
<stop stop-color="#AF3BB9"/>
<stop offset="1" stop-color="#EC76FF"/>
</radialGradient>
</defs>
</svg>
