<svg width="23" height="23" viewBox="0 0 23 23" fill="none" xmlns="http://www.w3.org/2000/svg">
<circle cx="11.5" cy="11.5" r="11" stroke="#6778B1" strokeOpacity="0.24"/>
<path d="M11.4907 1C17.4183 1 22 5.57763 22 11.5C22 17.4224 17.4183 22 11.4907 22C8.52017 22 5.94331 20.8206 4 18.8723" stroke="url(#paint0_radial_2002_13)" strokeWidth="2" strokeLinecap="round"/>
<circle cx="3" cy="18" r="2" fill="#FF4471"/>
<path fill-rule="evenodd" clip-rule="evenodd" d="M8.79132 12.5719C9.51083 13.2909 10.4671 13.6869 11.4841 13.6869C12.5011 13.6869 13.4572 13.2909 14.1766 12.5719C15.6614 11.087 15.6614 8.67117 14.1772 7.18608C13.4578 6.46685 12.5011 6.0708 11.4841 6.0708C10.4667 6.0708 9.51026 6.46685 8.79103 7.18608C7.30637 8.67117 7.3068 11.087 8.79132 12.5719ZM11.8546 11.1055C11.6313 10.7822 11.5196 10.3438 11.5196 9.79049C11.5196 9.24049 11.6313 8.80549 11.8546 8.48549C12.0779 8.16216 12.4346 8.00049 12.9246 8.00049C13.4113 8.00049 13.7663 8.16216 13.9896 8.48549C14.2163 8.80549 14.3296 9.24049 14.3296 9.79049C14.3296 10.3438 14.2163 10.7822 13.9896 11.1055C13.7663 11.4288 13.4113 11.5905 12.9246 11.5905C12.4346 11.5905 12.0779 11.4288 11.8546 11.1055ZM13.3646 10.5255C13.4413 10.3522 13.4796 10.1072 13.4796 9.79049C13.4796 9.47382 13.4413 9.23216 13.3646 9.06549C13.2913 8.89549 13.1446 8.81049 12.9246 8.81049C12.7013 8.81049 12.5513 8.89549 12.4746 9.06549C12.3979 9.23549 12.3596 9.47715 12.3596 9.79049C12.3596 10.1072 12.3979 10.3522 12.4746 10.5255C12.5513 10.6955 12.7013 10.7805 12.9246 10.7805C13.1446 10.7805 13.2913 10.6955 13.3646 10.5255ZM8.22021 10.2305V10.9455H9.89021V11.5955H10.7552V10.9455H11.1802V10.2005H10.7552V8.01549H9.83521L8.22021 10.2305ZM9.09021 10.2005L9.96021 9.00549V10.2005H9.09021Z" fill="#8F9BBE"/>
<path d="M5.29698 14.1228L7.11893 14.2437L7.24016 16.066C7.24629 16.1604 7.30776 16.2425 7.39619 16.2761C7.42385 16.2866 7.4528 16.2913 7.48104 16.2913C7.54408 16.2913 7.60612 16.2668 7.65204 16.2204L9.88274 13.99C9.80202 13.9585 9.72258 13.9237 9.64385 13.8871C9.56598 13.8517 9.48754 13.8179 9.4121 13.7774C9.03088 13.5744 8.67747 13.3137 8.36342 12.9997C8.04581 12.6818 7.78767 12.327 7.58729 11.949C7.54693 11.8731 7.51299 11.7947 7.47748 11.7168C7.44125 11.6381 7.4056 11.5594 7.37422 11.4785L5.1421 13.7108C5.07521 13.7778 5.05339 13.8778 5.08662 13.9665C5.12028 14.0552 5.20228 14.1164 5.29698 14.1228Z" fill="#8F9BBE"/>
<path d="M15.5729 11.5332C15.541 11.6125 15.5022 11.6898 15.4652 11.7674C15.429 11.8441 15.3923 11.9204 15.3517 11.9954C15.155 12.3557 14.907 12.6955 14.6024 13.0002C14.2749 13.3275 13.9041 13.5948 13.5041 13.8014C13.4283 13.8406 13.3505 13.8763 13.2726 13.9112C13.1923 13.9466 13.1113 13.9791 13.0293 14.0096L15.3476 16.3276C15.3936 16.3738 15.4552 16.3984 15.5183 16.3984C15.5469 16.3984 15.5755 16.3934 15.6033 16.3831C15.6921 16.3496 15.7532 16.2674 15.7593 16.1727L15.8807 14.3509L17.7025 14.2297C17.7972 14.2234 17.879 14.1624 17.9128 14.0735C17.9461 13.9848 17.9243 13.8848 17.8574 13.818L15.5729 11.5332Z" fill="#8F9BBE"/>
<path d="M17.8894 11.1252L17.3591 11.4171C17.2966 11.4515 17.2236 11.3959 17.2355 11.323L17.3367 10.7048C17.3415 10.6759 17.3323 10.6464 17.3122 10.6259L16.8833 10.1881C16.8327 10.1364 16.8606 10.0465 16.9305 10.0358L17.5232 9.94564C17.551 9.94145 17.575 9.92316 17.5874 9.89684L17.8525 9.33439C17.8837 9.2681 17.9741 9.2681 18.0052 9.33439L18.2703 9.89684C18.2828 9.92316 18.3067 9.94145 18.3345 9.94564L18.9272 10.0358C18.9971 10.0465 19.0251 10.1364 18.9745 10.1881L18.5455 10.6259C18.5254 10.6464 18.5163 10.6759 18.521 10.7048L18.6222 11.323C18.6341 11.3959 18.5611 11.4515 18.4986 11.4171L17.9684 11.1252C17.9436 11.1116 17.9139 11.1116 17.889 11.1252H17.8894Z" fill="#8F9BBE"/>
<path d="M5.03194 11.1252L4.50171 11.4171C4.43917 11.4515 4.36615 11.3959 4.37808 11.323L4.4793 10.7048C4.48408 10.6759 4.47487 10.6464 4.45477 10.6259L4.02584 10.1881C3.97523 10.1364 4.00318 10.0465 4.07305 10.0358L4.66582 9.94564C4.69359 9.94145 4.71754 9.92316 4.72998 9.89684L4.99505 9.33439C5.02632 9.2681 5.11664 9.2681 5.14782 9.33439L5.4129 9.89684C5.42534 9.92316 5.44928 9.94145 5.47706 9.94564L6.06983 10.0358C6.13969 10.0465 6.16764 10.1364 6.11703 10.1881L5.68811 10.6259C5.668 10.6464 5.65888 10.6759 5.66357 10.7048L5.76479 11.323C5.77672 11.3959 5.7037 11.4515 5.64116 11.4171L5.11093 11.1252C5.08613 11.1116 5.05648 11.1116 5.0316 11.1252H5.03194Z" fill="#8F9BBE"/>
<path d="M7.17452 6.84057L6.64429 7.13241C6.58175 7.16685 6.50873 7.11127 6.52066 7.03837L6.62188 6.42016C6.62665 6.39125 6.61745 6.36172 6.59734 6.3412L6.16842 5.90339C6.11781 5.85173 6.14576 5.76179 6.21562 5.75118L6.8084 5.66097C6.83617 5.65678 6.86012 5.63849 6.87256 5.61217L7.13763 5.04972C7.1689 4.98343 7.25922 4.98343 7.2904 5.04972L7.55547 5.61217C7.56791 5.63849 7.59186 5.65678 7.61963 5.66097L8.2124 5.75118C8.28227 5.76179 8.31022 5.85173 8.25961 5.90339L7.83069 6.3412C7.81058 6.36172 7.80146 6.39125 7.80615 6.42016L7.90737 7.03837C7.9193 7.11127 7.84628 7.16685 7.78374 7.13241L7.25351 6.84057C7.22871 6.82692 7.19906 6.82692 7.17418 6.84057H7.17452Z" fill="#8F9BBE"/>
<path d="M15.7468 6.84057L15.2166 7.13241C15.154 7.16685 15.081 7.11127 15.0929 7.03837L15.1941 6.42016C15.1989 6.39125 15.1897 6.36172 15.1696 6.3412L14.7407 5.90339C14.6901 5.85173 14.718 5.76179 14.7879 5.75118L15.3807 5.66097C15.4084 5.65678 15.4324 5.63849 15.4448 5.61217L15.7099 5.04972C15.7412 4.98343 15.8315 4.98343 15.8627 5.04972L16.1277 5.61217C16.1402 5.63849 16.1641 5.65678 16.1919 5.66097L16.7847 5.75118C16.8545 5.76179 16.8825 5.85173 16.8319 5.90339L16.403 6.3412C16.3828 6.36172 16.3737 6.39125 16.3784 6.42016L16.4796 7.03837C16.4916 7.11127 16.4185 7.16685 16.356 7.13241L15.8258 6.84057C15.801 6.82692 15.7713 6.82692 15.7464 6.84057H15.7468Z" fill="#8F9BBE"/>
<defs>
<radialGradient id="paint0_radial_2002_13" cx="0" cy="0" r="1" gradientUnits="userSpaceOnUse" gradientTransform="translate(23.1813 8.8913) rotate(161.898) scale(21.9348 35.3251)">
<stop stop-color="#FF97B0"/>
<stop offset="1" stop-color="#FF3C6A"/>
</radialGradient>
</defs>
</svg>
