<svg width="30" height="30" viewBox="0 0 30 30" fill="none" xmlns="http://www.w3.org/2000/svg">
<path d="M29.397 15.336C29.397 14.1027 29.2969 13.2028 29.0804 12.2695H14.998V17.8357H23.2641C23.0975 19.219 22.1975 21.3022 20.1976 22.702L20.1696 22.8884L24.6222 26.3377L24.9307 26.3685C27.7637 23.752 29.397 19.9023 29.397 15.336Z" fill="#4285F4"/>
<path d="M14.9987 29.9954C19.0483 29.9954 22.4481 28.6621 24.9313 26.3623L20.1983 22.6958C18.9317 23.5791 17.2318 24.1957 14.9987 24.1957C11.0323 24.1957 7.66593 21.5793 6.4659 17.9629L6.29001 17.9778L1.66016 21.5609L1.59961 21.7292C4.06607 26.6288 9.13239 29.9954 14.9987 29.9954Z" fill="#34A853"/>
<path d="M6.46614 17.9637C6.1495 17.0305 5.96625 16.0305 5.96625 14.9973C5.96625 13.964 6.1495 12.9641 6.44948 12.0308L6.44109 11.8321L1.75323 8.19141L1.59985 8.26436C0.583298 10.2976 0 12.5808 0 14.9973C0 17.4138 0.583298 19.6969 1.59985 21.7301L6.46614 17.9637Z" fill="#FBBC05"/>
<path d="M14.9987 5.79955C17.8151 5.79955 19.7149 7.01612 20.7982 8.03279L25.0313 3.89972C22.4315 1.48323 19.0483 0 14.9987 0C9.13239 0 4.06607 3.3664 1.59961 8.26601L6.44924 12.0325C7.66593 8.41606 11.0323 5.79955 14.9987 5.79955Z" fill="#EB4335"/>
</svg>
