<svg width="20" height="20" viewBox="0 0 20 20" fill="none" xmlns="http://www.w3.org/2000/svg">
<path d="M15.4913 0H4.50875C2.01864 0 0 2.01864 0 4.50875V15.4913C0 17.9814 2.01864 20 4.50875 20H15.4913C17.9814 20 20 17.9814 20 15.4913V4.50875C20 2.01864 17.9814 0 15.4913 0Z" fill="#06C755"/>
<path d="M16.6644 9.057C16.6644 6.07325 13.6731 3.64575 9.99625 3.64575C6.31938 3.64575 3.32812 6.07325 3.32812 9.057C3.32812 11.732 5.70312 13.9726 8.90438 14.3958C9.12188 14.4426 9.4175 14.5389 9.49187 14.7245C9.55937 14.8933 9.53625 15.1576 9.51375 15.3276C9.51375 15.3276 9.43562 15.7983 9.41875 15.8983C9.38937 16.067 9.28438 16.5576 9.99625 16.2583C10.7081 15.9589 13.8362 13.997 15.235 12.3864C16.2013 11.327 16.6644 10.2495 16.6644 9.057Z" fill="white"/>
<path d="M14.4492 10.7792H12.5742C12.5411 10.7792 12.5093 10.7661 12.4858 10.7426C12.4624 10.7192 12.4492 10.6874 12.4492 10.6542V7.74487C12.4492 7.71172 12.4624 7.67993 12.4858 7.65648C12.5093 7.63304 12.5411 7.61987 12.5742 7.61987H14.4492C14.4824 7.61987 14.5142 7.63304 14.5376 7.65648C14.561 7.67993 14.5742 7.71172 14.5742 7.74487V8.218C14.5742 8.25115 14.561 8.28294 14.5376 8.30639C14.5142 8.32983 14.4824 8.343 14.4492 8.343H13.1761V8.83362H14.4492C14.4824 8.83362 14.5142 8.84679 14.5376 8.87023C14.561 8.89368 14.5742 8.92547 14.5742 8.95862V9.43612C14.5742 9.46927 14.561 9.50107 14.5376 9.52451C14.5142 9.54795 14.4824 9.56112 14.4492 9.56112H13.1761V10.0524H14.4492C14.4824 10.0524 14.5142 10.0655 14.5376 10.089C14.561 10.1124 14.5742 10.1442 14.5742 10.1774V10.6499C14.5748 10.6667 14.572 10.6834 14.566 10.6991C14.56 10.7147 14.5509 10.729 14.5392 10.7411C14.5275 10.7532 14.5135 10.7628 14.4981 10.7693C14.4826 10.7759 14.466 10.7793 14.4492 10.7792Z" fill="#06C755"/>
<path d="M7.51766 10.7799C7.55081 10.7799 7.5826 10.7667 7.60604 10.7433C7.62949 10.7198 7.64266 10.688 7.64266 10.6549V10.1824C7.64266 10.1492 7.62949 10.1174 7.60604 10.094C7.5826 10.0705 7.55081 10.0574 7.51766 10.0574H6.24453V7.74487C6.24453 7.71172 6.23136 7.67993 6.20792 7.65648C6.18448 7.63304 6.15268 7.61987 6.11953 7.61987H5.64453C5.61138 7.61987 5.57958 7.63304 5.55614 7.65648C5.5327 7.67993 5.51953 7.71172 5.51953 7.74487V10.653C5.51953 10.6862 5.5327 10.7179 5.55614 10.7414C5.57958 10.7648 5.61138 10.778 5.64453 10.778H7.51953L7.51766 10.7799Z" fill="#06C755"/>
<path d="M8.64688 7.6145H8.17438C8.10396 7.6145 8.04688 7.67159 8.04688 7.742V10.652C8.04688 10.7224 8.10396 10.7795 8.17438 10.7795H8.64688C8.71729 10.7795 8.77437 10.7224 8.77437 10.652V7.742C8.77437 7.67159 8.71729 7.6145 8.64688 7.6145Z" fill="#06C755"/>
<path d="M11.8637 7.6145H11.3912C11.3581 7.6145 11.3263 7.62767 11.3029 7.65111C11.2794 7.67456 11.2662 7.70635 11.2662 7.7395V9.46825L9.935 7.67013C9.93196 7.66537 9.9284 7.66096 9.92437 7.657L9.91687 7.6495L9.91 7.64388H9.90625L9.89937 7.63888H9.89563L9.88875 7.63513H9.88437H9.8775H9.87313H9.86562H9.86062H9.85312H9.84812H9.84125H9.35938C9.32622 7.63513 9.29443 7.6483 9.27099 7.67174C9.24754 7.69518 9.23438 7.72698 9.23438 7.76013V10.6701C9.23438 10.7033 9.24754 10.7351 9.27099 10.7585C9.29443 10.782 9.32622 10.7951 9.35938 10.7951H9.8325C9.86565 10.7951 9.89745 10.782 9.92089 10.7585C9.94433 10.7351 9.9575 10.7033 9.9575 10.6701V8.9245L11.2906 10.7245C11.2994 10.7373 11.3104 10.7483 11.3231 10.757L11.3306 10.762H11.3344L11.3406 10.7651H11.3469H11.3512H11.36C11.371 10.7678 11.3824 10.7693 11.3938 10.7695H11.8637C11.8969 10.7695 11.9287 10.7563 11.9521 10.7329C11.9756 10.7094 11.9887 10.6777 11.9887 10.6445V7.742C11.9891 7.72538 11.9861 7.70885 11.98 7.6934C11.9738 7.67794 11.9647 7.66387 11.953 7.65199C11.9414 7.64012 11.9275 7.63069 11.9122 7.62425C11.8968 7.61781 11.8804 7.6145 11.8637 7.6145Z" fill="#06C755"/>
</svg>
