<svg width="20" height="20" viewBox="0 0 20 20" fill="none" xmlns="http://www.w3.org/2000/svg">
<path d="M19.6 10.2214C19.6 9.39921 19.5332 8.79921 19.3889 8.177H10V11.8881H15.511C15.4 12.8103 14.8 14.1992 13.4666 15.1325L13.4479 15.2567L16.4165 17.5564L16.6222 17.577C18.511 15.8325 19.6 13.2658 19.6 10.2214Z" fill="#4285F4"/>
<path d="M9.99973 20.0014C12.6997 20.0014 14.9663 19.1125 16.6219 17.5792L13.4664 15.1347C12.6219 15.7236 11.4886 16.1347 9.99973 16.1347C7.35531 16.1347 5.11089 14.3903 4.31082 11.9792L4.19355 11.9892L1.10677 14.3781L1.06641 14.4903C2.71083 17.7569 6.0886 20.0014 9.99973 20.0014Z" fill="#34A853"/>
<path d="M4.31105 11.979C4.09995 11.3567 3.97777 10.69 3.97777 10.0012C3.97777 9.31225 4.09995 8.64561 4.29994 8.0234L4.29435 7.89088L1.1689 5.46362L1.06664 5.51226C0.388892 6.86783 0 8.39008 0 10.0012C0 11.6123 0.388892 13.1344 1.06664 14.49L4.31105 11.979Z" fill="#FBBC05"/>
<path d="M9.99973 3.86663C11.8775 3.86663 13.1441 4.67773 13.8664 5.35555L16.6886 2.59999C14.9553 0.988889 12.6997 0 9.99973 0C6.0886 0 2.71083 2.24442 1.06641 5.51105L4.29971 8.02218C5.11089 5.61108 7.35531 3.86663 9.99973 3.86663Z" fill="#EB4335"/>
</svg>
