<svg width="24" height="16" viewBox="0 0 24 16" fill="none" xmlns="http://www.w3.org/2000/svg">
<path d="M2.59227 10.5124C2.59227 11.4288 2.79333 12.1323 3.05632 12.5579C3.40104 13.1155 3.91515 13.3521 4.43932 13.3521C5.11528 13.3521 5.73374 13.1843 6.92553 11.536C7.88057 10.2148 9.0054 8.3603 9.7624 7.19767L11.0444 5.22798C11.9349 3.86006 12.9656 2.33944 14.1474 1.3087C15.1125 0.467365 16.153 0 17.2004 0C18.959 0 20.634 1.01908 21.916 2.93036C23.319 5.0235 24 7.66011 24 10.3809C24 11.9984 23.6812 13.1869 23.1387 14.1258C22.6146 15.0338 21.593 15.9411 19.8745 15.9411V13.3517C21.346 13.3517 21.7131 11.9996 21.7131 10.4522C21.7131 8.2472 21.199 5.8002 20.0664 4.05167C19.2628 2.81143 18.2212 2.05363 17.0753 2.05363C15.8358 2.05363 14.8385 2.98856 13.7176 4.65506C13.1216 5.54063 12.5099 6.61972 11.823 7.83744L11.0668 9.17701C9.54797 11.8707 9.16313 12.484 8.40363 13.4961C7.07251 15.2686 5.93571 15.9407 4.43932 15.9407C2.66405 15.9407 1.54153 15.1719 0.846264 14.0135C0.27877 13.0696 0 11.831 0 10.4198L2.59227 10.5124Z" fill="#0081FB"/>
<path d="M2.04297 3.11312C3.23144 1.28116 4.94659 0 6.91376 0C8.05297 0 9.18575 0.337179 10.3682 1.30287C11.6618 2.35844 13.0406 4.09761 14.7608 6.96273L15.3775 7.99065C16.8665 10.4711 17.7135 11.7473 18.2093 12.349C18.8469 13.1218 19.2935 13.3522 19.8735 13.3522C21.345 13.3522 21.7121 12.0001 21.7121 10.4527L23.999 10.381C23.999 11.9985 23.6802 13.187 23.1376 14.1259C22.6136 15.0339 21.592 15.9412 19.8735 15.9412C18.8052 15.9412 17.8588 15.7092 16.8122 14.7218C16.0079 13.964 15.067 12.6178 14.3434 11.4076L12.1909 7.81211C11.111 6.00769 10.12 4.66229 9.54695 4.05298C8.9301 3.39772 8.13722 2.60655 6.87194 2.60655C5.84794 2.60655 4.97825 3.32514 4.25051 4.42434L2.04297 3.11312Z" fill="url(#paint0_linear_403_1447)"/>
<path d="M6.87295 2.60655C5.84895 2.60655 4.97927 3.32514 4.25153 4.42434C3.2224 5.97753 2.59278 8.29104 2.59278 10.5128C2.59278 11.4292 2.79384 12.1327 3.05682 12.5583L0.846264 14.0139C0.27877 13.07 0 11.8314 0 10.4202C0 7.85373 0.704416 5.17882 2.04398 3.11312C3.23245 1.28116 4.9476 0 6.91477 0L6.87295 2.60655Z" fill="url(#paint1_linear_403_1447)"/>
<defs>
<linearGradient id="paint0_linear_403_1447" x1="5.20163" y1="7.55747" x2="21.7268" y2="8.39207" gradientUnits="userSpaceOnUse">
<stop stop-color="#0064E1"/>
<stop offset="0.4" stop-color="#0064E1"/>
<stop offset="0.83" stop-color="#0073EE"/>
<stop offset="1" stop-color="#0082FB"/>
</linearGradient>
<linearGradient id="paint1_linear_403_1447" x1="3.45734" y1="11.6011" x2="3.45734" y2="5.50846" gradientUnits="userSpaceOnUse">
<stop stop-color="#0082FB"/>
<stop offset="1" stop-color="#0064E0"/>
</linearGradient>
</defs>
</svg>
