<svg width="34" height="32" viewBox="0 0 34 32" fill="none" xmlns="http://www.w3.org/2000/svg">
<path d="M31.7481 1L19.1211 10.3782L21.4561 4.8452L31.7481 1Z" fill="#E2761B" stroke="#E2761B" strokeLinecap="round" strokeLinejoin="round"/>
<path d="M2.59812 1L15.1236 10.4671L12.9028 4.8452L2.59812 1ZM27.2049 22.7387L23.8419 27.891L31.0374 29.8708L33.1059 22.8529L27.2049 22.7387ZM1.26562 22.8529L3.32148 29.8708L10.517 27.891L7.15399 22.7387L1.26562 22.8529Z" fill="#E4761B" stroke="#E4761B" strokeLinecap="round" strokeLinejoin="round"/>
<path d="M10.1106 14.0339L8.10547 17.067L15.2502 17.3842L14.9964 9.70651L10.1106 14.0339ZM24.235 14.0339L19.2857 9.61768L19.1208 17.3842L26.2528 17.067L24.235 14.0339ZM10.5167 27.8919L14.806 25.798L11.1004 22.9046L10.5167 27.8919ZM19.5396 25.798L23.8416 27.8919L23.2452 22.9046L19.5396 25.798Z" fill="#E4761B" stroke="#E4761B" strokeLinecap="round" strokeLinejoin="round"/>
<path d="M23.8445 27.8928L19.5424 25.7988L19.8851 28.6034L19.847 29.7836L23.8445 27.8928ZM10.5195 27.8928L14.517 29.7836L14.4916 28.6034L14.8089 25.7988L10.5195 27.8928Z" fill="#D7C1B3" stroke="#D7C1B3" strokeLinecap="round" strokeLinejoin="round"/>
<path d="M14.5787 21.0524L11 19.9991L13.5254 18.8442L14.5787 21.0524ZM19.7691 21.0524L20.8224 18.8442L23.3605 19.9991L19.7691 21.0524Z" fill="#233447" stroke="#233447" strokeLinecap="round" strokeLinejoin="round"/>
<path d="M10.5192 27.8928L11.1284 22.7405L7.15625 22.8547L10.5192 27.8928ZM23.235 22.7405L23.8442 27.8928L27.2071 22.8547L23.235 22.7405ZM26.2554 17.0679L19.1233 17.3851L19.7832 21.0527L20.8365 18.8445L23.3746 19.9994L26.2554 17.0679ZM11.0015 19.9994L13.5395 18.8445L14.5802 21.0527L15.2528 17.3851L8.10803 17.0679L11.0015 19.9994Z" fill="#CD6116" stroke="#CD6116" strokeLinecap="round" strokeLinejoin="round"/>
<path d="M8.10547 17.0679L11.1004 22.9055L10.9989 19.9994L8.10547 17.0679ZM23.3721 19.9994L23.2452 22.9055L26.2528 17.0679L23.3721 19.9994ZM15.2502 17.3851L14.5776 21.0527L15.4152 25.3801L15.6055 19.6821L15.2502 17.3851ZM19.1208 17.3851L18.7781 19.6694L18.9304 25.3801L19.7807 21.0527L19.1208 17.3851Z" fill="#E4751F" stroke="#E4751F" strokeLinecap="round" strokeLinejoin="round"/>
<path d="M19.7818 21.0523L18.9315 25.3798L19.5407 25.7986L23.2463 22.9051L23.3732 19.999L19.7818 21.0523ZM11 19.999L11.1015 22.9051L14.8071 25.7986L15.4163 25.3798L14.5787 21.0523L11 19.999Z" fill="#F6851B" stroke="#F6851B" strokeLinecap="round" strokeLinejoin="round"/>
<path d="M19.847 29.781L19.8851 28.6008L19.5678 28.3216H14.7835L14.4916 28.6008L14.517 29.781L10.5195 27.8901L11.9155 29.0323L14.7454 30.9993H19.6059L22.4485 29.0323L23.8445 27.8901L19.847 29.781Z" fill="#C0AD9E" stroke="#C0AD9E" strokeLinecap="round" strokeLinejoin="round"/>
<path d="M19.5391 25.7977L18.9299 25.3789H15.4147L14.8055 25.7977L14.4883 28.6023L14.7802 28.3231H19.5645L19.8817 28.6023L19.5391 25.7977Z" fill="#161616" stroke="#161616" strokeLinecap="round" strokeLinejoin="round"/>
<path d="M32.2819 10.9874L33.3606 5.80968L31.7489 1L19.5407 10.061L24.2362 14.0331L30.8733 15.9747L32.3454 14.2615L31.7109 13.8047L32.7261 12.8783L31.9393 12.2691L32.9545 11.495L32.2819 10.9874ZM1 5.80968L2.07869 10.9874L1.3934 11.495L2.40864 12.2691L1.63452 12.8783L2.64976 13.8047L2.01524 14.2615L3.47464 15.9747L10.1117 14.0331L14.8072 10.061L2.599 1L1 5.80968Z" fill="#763D16" stroke="#763D16" strokeLinecap="round" strokeLinejoin="round"/>
<path d="M30.8724 15.9764L24.2353 14.0348L26.2531 17.0678L23.2455 22.9054L27.2049 22.8547H33.1059L30.8724 15.9764ZM10.1109 14.0348L3.47376 15.9764L1.26562 22.8547H7.15399L11.1007 22.9054L8.10577 17.0678L10.1109 14.0348ZM19.1211 17.3851L19.5399 10.0627L21.4688 4.84692H12.9028L14.8063 10.0627L15.2505 17.3851L15.4028 19.6947L15.4155 25.3801H18.9307L18.9561 19.6947L19.1211 17.3851Z" fill="#F6851B" stroke="#F6851B" strokeLinecap="round" strokeLinejoin="round"/>
</svg>
