<svg width="30" height="30" viewBox="0 0 30 30" fill="none" xmlns="http://www.w3.org/2000/svg">
<path fill-rule="evenodd" clip-rule="evenodd" d="M15 0C23.2852 0 30 6.71484 30 15C30 23.2852 23.2852 30 15 30C6.71484 30 0 23.2852 0 15C0 6.71484 6.71484 0 15 0Z" fill="url(#paint0_radial_403_1001)"/>
<path d="M9.53223 11.584C12.5498 8.63672 17.4482 8.63672 20.4658 11.584L20.8291 11.9414C20.9814 12.0879 20.9814 12.3281 20.8291 12.4746L19.5869 13.6875C19.5107 13.7637 19.3877 13.7637 19.3115 13.6875L18.8135 13.2012C16.7041 11.1445 13.2939 11.1445 11.1846 13.2012L10.6514 13.7227C10.5752 13.7988 10.4521 13.7988 10.376 13.7227L9.13379 12.5098C8.98145 12.3633 8.98145 12.123 9.13379 11.9766L9.53223 11.584ZM23.0381 14.0918L24.1455 15.1699C24.2979 15.3164 24.2979 15.5566 24.1455 15.7031L19.1592 20.5723C19.0068 20.7188 18.7607 20.7188 18.6143 20.5723L15.0752 17.1152C15.04 17.0801 14.9756 17.0801 14.9404 17.1152L11.4014 20.5723C11.249 20.7188 11.0029 20.7188 10.8564 20.5723L5.85254 15.7031C5.7002 15.5566 5.7002 15.3164 5.85254 15.1699L6.95996 14.0918C7.1123 13.9453 7.3584 13.9453 7.50488 14.0918L11.0439 17.5488C11.0791 17.584 11.1436 17.584 11.1787 17.5488L14.7178 14.0918C14.8701 13.9453 15.1162 13.9453 15.2627 14.0918L18.8018 17.5488C18.8369 17.584 18.9014 17.584 18.9365 17.5488L22.4756 14.0918C22.6396 13.9453 22.8857 13.9453 23.0381 14.0918Z" fill="white"/>
<defs>
<radialGradient id="paint0_radial_403_1001" cx="0" cy="0" r="1" gradientUnits="userSpaceOnUse" gradientTransform="translate(9.29832e-05 15.0005) scale(30)">
<stop stop-color="#5D9DF6"/>
<stop offset="1" stop-color="#006FFF"/>
</radialGradient>
</defs>
</svg>
