<svg width="30" height="30" viewBox="0 0 30 30" fill="none" xmlns="http://www.w3.org/2000/svg">
<path d="M15 30C23.2843 30 30 23.2843 30 15C30 6.71573 23.2843 0 15 0C6.71573 0 0 6.71573 0 15C0 23.2843 6.71573 30 15 30Z" fill="#0052FF"/>
<path d="M15.126 10.6005C16.892 10.6005 18.293 11.6897 18.825 13.3096H22.3828C21.7383 9.84639 18.881 7.5 15.1544 7.5C10.9225 7.5 7.61719 10.7124 7.61719 15.0144C7.61719 19.3163 10.8398 22.5 15.1544 22.5C18.7975 22.5 21.7116 20.1536 22.3567 16.6617H18.8247C18.3202 18.2818 16.9204 19.3995 15.1532 19.3995C12.7148 19.3995 11.006 17.5277 11.006 15.0144C11.0071 12.4723 12.6885 10.6005 15.126 10.6005Z" fill="white"/>
</svg>
