<svg width="30" height="30" viewBox="0 0 30 30" fill="none" xmlns="http://www.w3.org/2000/svg">
<rect x="5" y="5" width="21" height="21" fill="#ECF3FF"/>
<path fill-rule="evenodd" clip-rule="evenodd" d="M1.0212 5.1156C0 7.122 0 9.7524 0 15C0 20.2608 0 22.878 1.0212 24.8844C1.9224 26.6496 3.3636 28.0788 5.1168 28.98C7.122 30 9.7524 30 15 30C20.2608 30 22.878 30 24.8844 28.9788C26.6496 28.0776 28.0788 26.6364 28.98 24.8832C30.0012 22.878 30.0012 20.2476 30.0012 14.9988C30.0012 9.738 30.0012 7.1208 28.98 5.1144C28.0788 3.3492 26.6376 1.92 24.8844 1.0188C22.878 0 20.2476 0 15 0C9.7392 0 7.122 0 5.1156 1.0212C3.3504 1.9212 1.9212 3.3624 1.0212 5.1156ZM22.506 8.094C22.77 8.094 23.022 8.202 23.202 8.382C23.382 8.574 23.49 8.826 23.478 9.078C23.43 11.8764 23.322 14.0136 23.118 15.7068C22.926 17.4 22.626 18.6612 22.1808 19.6704C21.8808 20.3544 21.5088 20.9196 21.0756 21.3876C20.4876 22.0236 19.8144 22.4808 19.0824 22.9128C18.7704 23.1048 18.4464 23.2848 18.0972 23.4768C17.3652 23.8848 16.572 24.342 15.6588 24.954C15.3348 25.17 14.9016 25.17 14.5776 24.954C13.6524 24.342 12.8484 23.8848 12.1152 23.4648C11.9472 23.3688 11.7912 23.2848 11.6352 23.1888C10.782 22.6968 10.002 22.2156 9.3288 21.5316C8.8728 21.0756 8.4876 20.5344 8.1756 19.8744C7.7556 18.9972 7.4676 17.9412 7.2504 16.584C6.9744 14.7588 6.8304 12.3684 6.7824 9.054C6.7824 8.802 6.8784 8.538 7.0584 8.358C7.2384 8.178 7.4904 8.07 7.7544 8.07H8.1624C9.4116 8.07 12.15 7.95 14.5272 6.1008C14.8752 5.8248 15.3684 5.8248 15.7284 6.1008C18.1068 7.95 20.844 8.07 22.0932 8.07H22.5012V8.094H22.506ZM20.3208 19.0596C20.6208 18.4356 20.8848 17.5584 21.078 16.3092C21.306 14.82 21.45 12.7908 21.51 10.0284C20.0448 9.9804 17.5344 9.7044 15.1332 8.0952C12.7308 9.7044 10.2216 9.9804 8.7684 10.0284C8.8164 12.3108 8.9244 14.088 9.0924 15.4812C9.2844 17.0664 9.5484 18.1356 9.8856 18.8916C10.1016 19.3956 10.3536 19.7568 10.6428 20.0688C11.0268 20.5008 11.52 20.85 12.192 21.246C12.468 21.414 12.78 21.582 13.1172 21.774C13.7172 22.11 14.3904 22.494 15.1584 22.9752C15.9024 22.4952 16.5756 22.122 17.1636 21.786C17.3436 21.69 17.5116 21.594 17.6676 21.498C18.4968 21.03 19.1088 20.6328 19.5528 20.1648C19.8528 19.8528 20.1048 19.5048 20.334 19.0356L20.3208 19.0596Z" fill="#3375BB"/>
</svg>
