<svg width="27" height="30" viewBox="0 0 27 30" fill="none" xmlns="http://www.w3.org/2000/svg">
<path d="M17.3291 27.6044L5.13738 20.5501C4.67732 20.3201 4.44728 19.86 4.44728 19.3233V5.13795C4.44728 4.90792 4.21725 4.75457 4.0639 4.90792L1.53355 6.36479C0.613419 6.90153 0 7.89833 0 9.04849V20.9335C0 22.007 0.613419 23.0038 1.53355 23.6172L11.8083 29.598C12.7284 30.1348 13.9553 30.1348 14.8754 29.598L17.4058 28.1411C17.5591 27.9111 17.5591 27.6811 17.3291 27.6044Z" fill="#495BFF"/>
<path d="M7.36197 19.2455L12.6527 22.3126C13.1128 22.5426 13.6495 22.5426 14.0329 22.3126L19.3236 19.2455C19.7837 19.0155 20.0137 18.5554 20.0137 18.0187V11.8845C20.0137 11.4244 19.7837 10.9644 19.3236 10.6576L14.0329 7.59055C13.5728 7.36052 13.0361 7.36052 12.6527 7.59055L11.3492 8.35732C11.2725 8.434 11.1192 8.35732 11.1192 8.20397V1.22633C11.1192 0.9963 10.8891 0.842946 10.7358 0.9963L7.36197 2.91323C6.90191 3.14327 6.67188 3.60333 6.67188 4.14007V17.942C6.67187 18.4787 6.90191 18.9388 7.36197 19.2455ZM10.4291 13.7247C10.4291 13.418 10.5824 13.188 10.8124 13.0346L12.8827 11.8078C13.1128 11.6544 13.4962 11.6544 13.7262 11.8078L15.7965 13.0346C16.0265 13.188 16.1799 13.4947 16.1799 13.7247V16.1017C16.1799 16.4084 16.0265 16.6385 15.7965 16.7918L13.7262 18.0187C13.4962 18.172 13.1128 18.172 12.8827 18.0187L10.8124 16.8685C10.5824 16.7151 10.4291 16.4084 10.4291 16.1784V13.7247Z" fill="#495BFF"/>
<path d="M25.1481 6.36422L14.8734 0.383387C14.4133 0.153355 13.9533 0 13.4932 0C13.4165 0 13.3398 0.0766779 13.3398 0.153355V4.52396C13.3398 4.60064 13.4165 4.67732 13.4932 4.75399L21.5443 9.43131C22.0044 9.66134 22.2344 10.1214 22.2344 10.6581V19.3227C22.2344 19.7827 22.0044 20.2428 21.5443 20.5495L16.0235 23.77C15.8702 23.8466 15.8702 24.1534 16.0235 24.23L19.7807 26.377C19.9341 26.4537 20.1641 26.4537 20.3175 26.377L25.1481 23.5399C26.0683 23.0032 26.6817 22.0064 26.6817 20.8562V8.97125C26.605 7.89776 26.0683 6.90096 25.1481 6.36422Z" fill="#495BFF"/>
</svg>
