<svg width="30" height="30" viewBox="0 0 30 30" fill="none" xmlns="http://www.w3.org/2000/svg">
<path d="M19.3373 10H10.6706C10.3024 10 10.0039 10.2984 10.0039 10.6666V19.3334C10.0039 19.7015 10.3024 20.0001 10.6706 20.0001H19.3373C19.7055 20.0001 20.004 19.7015 20.004 19.3334V10.6666C20.004 10.2984 19.7055 10 19.3373 10Z" fill="white"/>
<path d="M9.33337 0H0.66672C0.29854 0 0 0.298402 0 0.666716V9.33336C0 9.70154 0.29854 10.0001 0.66672 10.0001H9.33337C9.70168 10.0001 10.0001 9.70154 10.0001 9.33336V0.666716C10.0001 0.298402 9.70168 0 9.33337 0Z" fill="white"/>
<path d="M29.3335 0H20.6667C20.2985 0 20 0.298402 20 0.666716V9.33336C20 9.70154 20.2985 10.0001 20.6667 10.0001H29.3335C29.7017 10.0001 30.0001 9.70154 30.0001 9.33336V0.666716C30.0001 0.298402 29.7017 0 29.3335 0Z" fill="white"/>
<path d="M9.33337 20H0.66672C0.29854 20 0 20.2984 0 20.6666V29.3334C0 29.7015 0.29854 30.0001 0.66672 30.0001H9.33337C9.70168 30.0001 10.0001 29.7015 10.0001 29.3334V20.6666C10.0001 20.2984 9.70168 20 9.33337 20Z" fill="white"/>
<path d="M29.3335 20H20.6667C20.2985 20 20 20.2984 20 20.6666V29.3334C20 29.7015 20.2985 30.0001 20.6667 30.0001H29.3335C29.7017 30.0001 30.0001 29.7015 30.0001 29.3334V20.6666C30.0001 20.2984 29.7017 20 29.3335 20Z" fill="white"/>
</svg>
