<svg width="47" height="26" viewBox="0 0 47 26" fill="none" xmlns="http://www.w3.org/2000/svg">
  <g id="statusRect">
    <path class="vlineGameStatusRect" fill-rule="evenodd" clip-rule="evenodd"
      d="M6 4C4.34315 4 3 5.34315 3 7V18C3 19.6569 4.34315 21 6 21H22.768L24.067 23.25C24.2594 23.5833 24.7406 23.5833 24.933 23.25L26.2321 21H44C45.6569 21 47 19.6569 47 18V7C47 5.34315 45.6569 4 44 4H6Z"
      fill="url(#_up)" />
    <radialGradient id="_up" cx="0" cy="0" r="1" gradientUnits="userSpaceOnUse"
      gradientTransform="translate(5.75245 4.61575) rotate(27.3654) scale(39.0134 31.8524)">
      <stop stop-color="#9ADB7B" />
      <stop offset="1" stop-color="#39C965" />
    </radialGradient>

    <radialGradient id="_down" cx="0" cy="0" r="1" gradientUnits="userSpaceOnUse"
      gradientTransform="translate(2.75245 0.615745) rotate(27.3654) scale(39.0134 31.8524)">
      <stop stop-color="#FF774D" />
      <stop offset="1" stop-color="#EF5454" />
    </radialGradient>






  </g>

  <g filter="url(#filter0_d_1927_83534)" id="rocketUP">
    <path class="rocketUP" fill-rule="evenodd" clip-rule="evenodd"
      d="M13.259 16.6881C13.3152 16.6797 14.6282 16.4421 15.5472 15.4293C16.1516 14.7645 16.3621 13.7329 16.2516 12.9181C16.1078 13.0827 15.9557 13.2349 15.7973 13.3745C14.9012 14.1664 13.9279 14.6916 13.1735 15.0209C13.3569 15.3751 13.3778 15.7961 13.2152 16.1775L13.0881 16.4734C13.0672 16.5255 13.0756 16.5859 13.111 16.6318C13.1402 16.6693 13.186 16.6901 13.2319 16.6901H13.2319C13.2423 16.6901 13.2506 16.6901 13.259 16.6881ZM8.31364 11.7427C8.32198 11.6865 8.55955 10.3735 9.57238 9.45449C10.2372 8.85221 11.2667 8.64173 12.0815 8.75218C11.9169 8.89597 11.7647 9.04811 11.6272 9.20441C10.8374 10.0984 10.3122 11.0717 9.98293 11.8302C9.62865 11.6448 9.20559 11.6239 8.82422 11.7865L8.52829 11.9136C8.47619 11.9344 8.41576 11.9261 8.36991 11.8907C8.32614 11.8553 8.30322 11.799 8.31364 11.7427ZM9.41399 13.8934L9.67241 13.635L9.67449 13.6371L11.3688 15.3314L11.1104 15.5898C11.0416 15.6586 10.9499 15.6961 10.852 15.6961C10.754 15.6961 10.6623 15.6586 10.5935 15.5898L9.41399 14.4102C9.34522 14.3415 9.30771 14.2498 9.30771 14.1518C9.30771 14.0539 9.34522 13.9622 9.41399 13.8934ZM12.9339 14.7833C13.682 14.4707 14.6761 13.9476 15.5889 13.1411V13.1432C16.9039 11.9803 17.8521 9.81293 18.0022 7.62056C18.0147 7.45176 17.9542 7.29129 17.8354 7.17042C17.7167 7.04955 17.5541 6.98911 17.3853 7.00162C15.1929 7.15166 13.0256 8.09988 11.8627 9.41489C11.0562 10.3256 10.5352 11.3218 10.2205 12.0699L12.9339 14.7833ZM12.6192 14.9104L10.0934 12.3846H10.0892C9.90165 12.8702 9.81829 13.1974 9.80995 13.2307C9.79745 13.2849 9.81412 13.3391 9.85372 13.3787L11.623 15.148C11.6522 15.1772 11.6918 15.1938 11.7335 15.1938C11.746 15.1938 11.7585 15.1917 11.771 15.1897C11.7755 15.1883 11.7852 15.1856 11.7998 15.1816C11.8947 15.1556 12.1968 15.0729 12.6192 14.9104ZM14.7716 11.7928C15.6923 11.7928 16.4388 11.0464 16.4388 10.1256C16.4388 9.20487 15.6923 8.45844 14.7716 8.45844C13.8508 8.45844 13.1044 9.20487 13.1044 10.1256C13.1044 11.0464 13.8508 11.7928 14.7716 11.7928ZM9.74274 15.2583C9.86425 15.3798 9.86425 15.5768 9.74274 15.6984L8.83405 16.607C8.71255 16.7285 8.51555 16.7285 8.39404 16.607C8.27254 16.4855 8.27254 16.2885 8.39404 16.167L9.30273 15.2583C9.42423 15.1368 9.62123 15.1368 9.74274 15.2583ZM8.83403 15.0923C8.95554 14.9708 8.95554 14.7738 8.83403 14.6523C8.71253 14.5308 8.51553 14.5308 8.39402 14.6523L8.09113 14.9552C7.96962 15.0767 7.96962 15.2737 8.09113 15.3952C8.21263 15.5167 8.40963 15.5167 8.53114 15.3952L8.83403 15.0923ZM10.3485 16.166C10.47 16.2875 10.47 16.4845 10.3485 16.606L10.0456 16.9089C9.92413 17.0304 9.72713 17.0304 9.60562 16.9089C9.48412 16.7874 9.48412 16.5904 9.60562 16.4689L9.90852 16.166C10.03 16.0445 10.227 16.0445 10.3485 16.166ZM15.2028 10.8812C15.4744 10.787 15.673 10.6457 15.634 10.3829L15.634 10.383L15.6341 10.3829C15.6058 10.1906 15.5 10.0974 15.3594 10.0648C15.5524 9.96358 15.6506 9.80838 15.557 9.53931C15.4409 9.20511 15.1651 9.17692 14.7983 9.24685L14.7093 8.88749L14.4942 8.94148L14.582 9.29601C14.5263 9.30997 14.4693 9.32477 14.4106 9.34082L14.3224 8.98461L14.1076 9.0386L14.1966 9.39864C14.1759 9.40396 14.1551 9.40943 14.1341 9.41493C14.1042 9.4228 14.0739 9.43076 14.0432 9.4385L13.7633 9.50879L13.8701 9.75682C13.8701 9.75682 14.0286 9.71437 14.0264 9.71752C14.0873 9.70233 14.1144 9.74233 14.125 9.76899L14.2657 10.3371C14.2722 10.3355 14.2785 10.3339 14.2845 10.3324C14.2858 10.332 14.2871 10.3317 14.2884 10.3314C14.2798 10.3349 14.272 10.3371 14.266 10.3386L14.3664 10.7441C14.369 10.7902 14.3533 10.8483 14.2662 10.8702C14.2695 10.8724 14.1099 10.9093 14.1099 10.9093L14.1671 11.1407L14.4638 11.0661L14.4635 11.065C14.5081 11.0538 14.5541 11.0432 14.6009 11.0325L14.6891 11.3883L14.904 11.3343L14.8177 10.9854C14.8754 10.9722 14.9335 10.9588 14.99 10.9446L15.0758 11.2911L15.2909 11.2372L15.2028 10.8812ZM14.5224 9.59063C14.6979 9.54393 15.0815 9.44188 15.1425 9.68874H15.1425C15.205 9.94112 14.833 10.0252 14.6514 10.0662C14.6311 10.0708 14.6132 10.0749 14.5986 10.0786L14.4804 9.60159C14.4925 9.59858 14.5066 9.59483 14.5224 9.59063ZM14.6879 10.2876C14.8342 10.2483 15.1534 10.1625 15.209 10.3868H15.209C15.2658 10.6163 14.9556 10.6855 14.8041 10.7193C14.787 10.7231 14.772 10.7264 14.7597 10.7295L14.6526 10.2969C14.6627 10.2944 14.6746 10.2912 14.6879 10.2876Z"
      fill="#ECF3FF" />
    <defs>
      <filter id="filter0_d_1927_83534" x="0" y="0" width="26.0039" height="26" filterUnits="userSpaceOnUse"
        color-interpolation-filters="sRGB">
        <feFlood flood-opacity="0" result="BackgroundImageFix" />
        <feColorMatrix in="SourceAlpha" type="matrix" values="0 0 0 0 0 0 0 0 0 0 0 0 0 0 0 0 0 0 127 0"
          result="hardAlpha" />
        <feOffset dy="1" />
        <feGaussianBlur stdDeviation="4" />
        <feComposite in2="hardAlpha" operator="out" />
        <feColorMatrix type="matrix" values="0 0 0 0 0.231373 0 0 0 0 0.662745 0 0 0 0 0.309804 0 0 0 0.7 0" />
        <feBlend mode="normal" in2="BackgroundImageFix" result="effect1_dropShadow_1927_83534" />
        <feBlend mode="normal" in="SourceGraphic" in2="effect1_dropShadow_1927_83534" result="shape" />
      </filter>
    </defs>
  </g>

  <g filter="url(#filter0_d_1927_76774)" id="rocketDown">
    <path class="rocketDown" fill-rule="evenodd" clip-rule="evenodd"
      d="M13.259 7.31194C13.3152 7.32028 14.6282 7.55785 15.5472 8.57068C16.1516 9.23548 16.3621 10.2671 16.2516 11.0819C16.1078 10.9173 15.9557 10.7651 15.7973 10.6255C14.9012 9.83358 13.9279 9.30842 13.1735 8.97914C13.3569 8.62486 13.3778 8.20389 13.2152 7.82252L13.0881 7.52659C13.0672 7.47449 13.0756 7.41406 13.111 7.36821C13.1402 7.3307 13.186 7.30986 13.2319 7.30986H13.2319C13.2423 7.30986 13.2506 7.30986 13.259 7.31194ZM8.31364 12.2573C8.32198 12.3135 8.55955 13.6265 9.57238 14.5455C10.2372 15.1478 11.2667 15.3583 12.0815 15.2478C11.9169 15.104 11.7647 14.9519 11.6272 14.7956C10.8374 13.9016 10.3122 12.9283 9.98293 12.1698C9.62865 12.3552 9.20559 12.3761 8.82422 12.2135L8.52829 12.0864C8.47619 12.0656 8.41576 12.0739 8.36991 12.1093C8.32614 12.1447 8.30322 12.201 8.31364 12.2573ZM9.41399 10.1066L9.67241 10.365L9.67449 10.3629L11.3688 8.66863L11.1104 8.41021C11.0416 8.34144 10.9499 8.30393 10.852 8.30393C10.754 8.30393 10.6623 8.34144 10.5935 8.41021L9.41399 9.58976C9.34522 9.65853 9.30771 9.75022 9.30771 9.84817C9.30771 9.94612 9.34522 10.0378 9.41399 10.1066ZM12.9339 9.21672C13.682 9.52932 14.6761 10.0524 15.5889 10.8589V10.8568C16.9039 12.0197 17.8521 14.1871 18.0022 16.3794C18.0147 16.5482 17.9542 16.7087 17.8354 16.8296C17.7167 16.9505 17.5541 17.0109 17.3853 16.9984C15.1929 16.8483 13.0256 15.9001 11.8627 14.5851C11.0562 13.6744 10.5352 12.6782 10.2205 11.9301L12.9339 9.21672ZM12.6192 9.08959L10.0934 11.6154H10.0892C9.90165 11.1298 9.81829 10.8026 9.80995 10.7693C9.79745 10.7151 9.81412 10.6609 9.85372 10.6213L11.623 8.85202C11.6522 8.82284 11.6918 8.80617 11.7335 8.80617C11.746 8.80617 11.7585 8.80826 11.771 8.81034C11.7755 8.81173 11.7852 8.81439 11.7998 8.81841C11.8947 8.8444 12.1968 8.92712 12.6192 9.08959ZM14.7716 12.2072C15.6923 12.2072 16.4388 12.9536 16.4388 13.8744C16.4388 14.7951 15.6923 15.5416 14.7716 15.5416C13.8508 15.5416 13.1044 14.7951 13.1044 13.8744C13.1044 12.9536 13.8508 12.2072 14.7716 12.2072ZM9.74274 8.74166C9.86425 8.62015 9.86425 8.42315 9.74274 8.30165L8.83405 7.39296C8.71255 7.27146 8.51555 7.27146 8.39404 7.39296C8.27254 7.51447 8.27254 7.71147 8.39404 7.83297L9.30273 8.74166C9.42423 8.86316 9.62123 8.86316 9.74274 8.74166ZM8.83403 8.90765C8.95554 9.02916 8.95554 9.22616 8.83403 9.34766C8.71253 9.46917 8.51553 9.46917 8.39402 9.34766L8.09113 9.04477C7.96962 8.92326 7.96962 8.72626 8.09113 8.60476C8.21263 8.48325 8.40963 8.48325 8.53114 8.60476L8.83403 8.90765ZM10.3485 7.83403C10.47 7.71253 10.47 7.51553 10.3485 7.39402L10.0456 7.09113C9.92413 6.96962 9.72713 6.96962 9.60562 7.09113C9.48412 7.21264 9.48412 7.40963 9.60562 7.53114L9.90852 7.83403C10.03 7.95554 10.227 7.95554 10.3485 7.83403ZM15.2028 13.1188C15.4744 13.213 15.673 13.3543 15.634 13.6171L15.634 13.617L15.6341 13.6171C15.6058 13.8094 15.5 13.9026 15.3594 13.9352C15.5524 14.0364 15.6506 14.1916 15.557 14.4607C15.4409 14.7949 15.1651 14.8231 14.7983 14.7532L14.7093 15.1125L14.4942 15.0585L14.582 14.704C14.5263 14.69 14.4693 14.6752 14.4106 14.6592L14.3224 15.0154L14.1076 14.9614L14.1966 14.6014C14.1759 14.596 14.1551 14.5906 14.1341 14.5851C14.1042 14.5772 14.0739 14.5692 14.0432 14.5615L13.7633 14.4912L13.8701 14.2432C13.8701 14.2432 14.0286 14.2856 14.0264 14.2825C14.0873 14.2977 14.1144 14.2577 14.125 14.231L14.2657 13.6629C14.2722 13.6645 14.2785 13.6661 14.2845 13.6676C14.2858 13.668 14.2871 13.6683 14.2884 13.6686C14.2798 13.6651 14.272 13.6629 14.266 13.6614L14.3664 13.2559C14.369 13.2098 14.3533 13.1517 14.2662 13.1298C14.2695 13.1276 14.1099 13.0907 14.1099 13.0907L14.1671 12.8593L14.4638 12.9339L14.4635 12.935C14.5081 12.9462 14.5541 12.9568 14.6009 12.9675L14.6891 12.6117L14.904 12.6657L14.8177 13.0146C14.8754 13.0278 14.9335 13.0412 14.99 13.0554L15.0758 12.7089L15.2909 12.7628L15.2028 13.1188ZM14.5224 14.4094C14.6979 14.4561 15.0815 14.5581 15.1425 14.3113H15.1425C15.205 14.0589 14.833 13.9748 14.6514 13.9338C14.6311 13.9292 14.6132 13.9251 14.5986 13.9214L14.4804 14.3984C14.4925 14.4014 14.5066 14.4052 14.5224 14.4094ZM14.6879 13.7124C14.8342 13.7517 15.1534 13.8375 15.209 13.6132H15.209C15.2658 13.3837 14.9556 13.3145 14.8041 13.2807C14.787 13.2769 14.772 13.2736 14.7597 13.2705L14.6526 13.7031C14.6627 13.7056 14.6746 13.7088 14.6879 13.7124Z"
      fill="#ECF3FF" />
    <defs>
      <filter id="filter0_d_1927_76774" x="0" y="0" width="26.0039" height="26" filterUnits="userSpaceOnUse"
        color-interpolation-filters="sRGB">
        <feFlood flood-opacity="0" result="BackgroundImageFix" />
        <feColorMatrix in="SourceAlpha" type="matrix" values="0 0 0 0 0 0 0 0 0 0 0 0 0 0 0 0 0 0 127 0"
          result="hardAlpha" />
        <feOffset dy="1" />
        <feGaussianBlur stdDeviation="4" />
        <feComposite in2="hardAlpha" operator="out" />
        <feColorMatrix type="matrix" values="0 0 0 0 0.713726 0 0 0 0 0.254902 0 0 0 0 0.227451 0 0 0 0.7 0" />
        <feBlend mode="normal" in2="BackgroundImageFix" result="effect1_dropShadow_1927_76774" />
        <feBlend mode="normal" in="SourceGraphic" in2="effect1_dropShadow_1927_76774" result="shape" />
      </filter>
      <radialGradient id="paint0_radial_1927_76774" cx="0" cy="0" r="1" gradientUnits="userSpaceOnUse"
        gradientTransform="translate(5.75245 4.61575) rotate(27.3654) scale(39.0134 31.8524)">
        <stop stop-color="#FF774D" />
        <stop offset="1" stop-color="#EF5454" />
      </radialGradient>
    </defs>
  </g>



</svg>